<?xml version="1.0" standalone="no"?>
<!DOCTYPE svg PUBLIC "-//W3C//DTD SVG 20010904//EN"
 "http://www.w3.org/TR/2001/REC-SVG-20010904/DTD/svg10.dtd">
<svg version="1.0" xmlns="http://www.w3.org/2000/svg"
 width="228.000000pt" height="215.000000pt" viewBox="0 0 228.000000 215.000000"
 preserveAspectRatio="xMidYMid meet">
<metadata>
Created by potrace 1.10, written by Peter Selinger 2001-2011
</metadata>
<g transform="translate(0.000000,215.000000) scale(0.100000,-0.100000)"
fill="#000000" stroke="none">
<path d="M1279 2087 c-43 -29 -70 -83 -71 -144 0 -55 9 -113 22 -128 6 -7 -38
-10 -138 -11 -134 0 -153 -3 -214 -26 -101 -40 -224 -123 -316 -215 l-32 -32
-15 36 c-8 19 -15 39 -15 44 0 5 -4 9 -10 9 -5 0 -10 5 -10 11 0 18 -61 87
-101 113 -77 52 -156 44 -223 -22 -73 -70 -94 -165 -60 -265 33 -96 165 -204
240 -195 l32 4 0 -49 c1 -27 9 -85 18 -129 l17 -79 -42 -87 c-70 -142 -77
-164 -80 -250 -3 -66 7 -106 41 -184 l21 -47 -37 -41 c-34 -38 -55 -75 -62
-110 -4 -19 25 -80 38 -80 6 0 7 -19 4 -47 -5 -34 -2 -56 9 -77 8 -15 15 -31
15 -35 0 -3 -28 -15 -62 -26 -60 -19 -61 -20 -28 -23 36 -3 180 55 195 77 9
16 -22 13 -48 -4 -12 -8 -28 -11 -35 -6 -16 9 -29 111 -15 111 6 0 36 -11 66
-25 51 -24 183 -65 207 -65 5 0 10 4 10 9 0 5 -33 18 -72 31 -166 50 -241 94
-250 144 -5 25 13 65 48 109 21 27 44 36 44 18 0 -5 23 -31 50 -59 28 -28 50
-53 50 -56 0 -3 -15 3 -33 14 -39 24 -54 26 -36 4 24 -29 105 -62 240 -98 321
-86 369 -100 454 -134 49 -19 105 -43 123 -53 18 -11 45 -19 60 -19 22 0 13 8
-46 39 -129 69 -256 111 -561 188 l-146 36 -60 65 c-75 81 -109 134 -136 214
-39 117 -31 186 37 328 25 52 50 98 57 102 8 5 5 40 -11 125 -26 140 -27 162
-7 210 78 187 359 425 547 463 66 13 236 16 288 5 57 -12 182 -82 241 -134 39
-35 70 -77 109 -147 63 -115 124 -200 172 -236 65 -50 145 -134 171 -178 36
-64 46 -134 42 -300 -4 -140 -38 -351 -66 -414 -6 -13 -36 -34 -72 -51 -219
-99 -328 -164 -367 -221 -14 -19 -36 -49 -48 -65 -22 -26 -22 -29 -5 -29 10 1
38 27 65 65 51 69 134 125 251 171 33 13 75 33 94 44 19 11 40 20 46 20 19 0
113 93 132 130 18 34 10 57 -9 27 -25 -41 -58 -81 -51 -62 3 11 12 46 18 78 6
31 13 57 17 57 19 0 70 -65 70 -90 0 -27 -31 -82 -74 -130 -27 -29 -53 -85
-58 -120 -5 -43 16 -28 33 23 9 27 21 53 27 59 18 18 54 -3 136 -83 89 -86
110 -103 144 -113 34 -11 28 19 -7 34 -16 6 -64 47 -107 90 -43 44 -92 85
-108 91 -17 7 -32 13 -34 14 -1 1 11 17 27 34 36 38 55 92 46 128 -3 14 -24
42 -46 62 -39 34 -40 38 -34 79 3 23 6 114 7 200 0 226 -16 275 -128 382 -169
162 -189 185 -244 289 -30 57 -65 113 -78 126 -20 20 -21 24 -6 36 49 40 73
158 51 251 -17 70 -69 153 -111 176 -89 48 -155 54 -207 19z m183 -39 c89 -49
140 -200 105 -311 -9 -29 -23 -62 -31 -72 -14 -20 -15 -20 -38 0 -53 47 -189
125 -216 125 -28 0 -55 106 -45 177 5 36 15 56 40 82 32 32 36 33 88 28 31 -3
74 -16 97 -29z m-1117 -318 c23 -11 55 -35 71 -53 41 -45 97 -154 88 -170 -5
-6 -28 -38 -51 -69 -24 -31 -53 -77 -63 -101 -11 -25 -28 -47 -37 -49 -45 -12
-152 54 -202 122 -39 54 -57 139 -42 192 13 43 61 102 106 130 39 23 79 23
130 -2z"/>
<path d="M1272 1572 c-31 -24 -18 -33 23 -16 51 21 99 1 151 -63 49 -60 70
-53 28 9 -56 81 -147 112 -202 70z"/>
<path d="M636 1379 c-52 -25 -85 -57 -102 -96 -17 -39 -19 -137 -3 -128 6 4 8
13 5 21 -3 7 1 36 10 63 15 53 57 97 112 120 31 13 40 25 24 34 -4 3 -25 -3
-46 -14z"/>
<path d="M1390 1215 c-29 -35 -1 -105 43 -105 16 0 17 -3 7 -15 -7 -8 -8 -15
-2 -15 5 0 15 7 23 16 17 21 63 44 89 44 11 0 20 5 20 11 0 11 -49 7 -82 -6
-13 -5 -15 -2 -11 14 13 50 -56 94 -87 56z"/>
<path d="M1145 1118 c-32 -4 -73 -12 -90 -18 -34 -12 -145 -92 -157 -115 -15
-26 11 -17 56 20 23 19 69 47 102 62 51 23 72 27 156 27 54 1 98 5 98 9 0 19
-83 27 -165 15z"/>
<path d="M1110 1023 c-24 -5 -87 -46 -102 -67 -28 -40 24 -102 112 -136 l55
-21 37 42 c98 108 42 208 -102 182z m104 -65 c11 -32 -13 -94 -40 -105 -19 -7
-82 13 -106 35 -33 28 -16 77 32 95 8 3 35 5 60 4 39 -2 46 -6 54 -29z"/>
<path d="M680 1001 c-13 -25 -13 -58 0 -66 17 -10 11 -20 -20 -33 -31 -14 -43
-40 -12 -27 38 16 86 23 118 18 37 -6 48 11 14 22 -15 5 -18 12 -13 36 11 55
-62 96 -87 50z"/>
<path d="M1470 886 c0 -8 13 -27 29 -43 l29 -29 -34 -102 c-36 -111 -70 -176
-108 -209 -22 -20 -64 -46 -76 -48 -110 -21 -219 -5 -336 51 -88 41 -159 114
-149 152 11 43 -5 41 -54 -7 -56 -54 -73 -83 -65 -105 9 -24 21 -19 27 13 4
19 15 32 35 40 28 12 32 10 79 -37 46 -46 115 -89 170 -106 12 -4 44 -29 70
-56 68 -68 108 -90 167 -90 46 0 53 3 91 44 22 25 54 71 69 103 16 32 39 78
51 103 31 62 75 186 75 214 0 12 6 30 13 41 14 17 15 17 45 0 34 -21 46 -17
36 9 -8 21 -55 46 -87 46 -13 0 -32 7 -43 15 -24 18 -34 19 -34 1z m-92 -448
c-13 -18 -24 -35 -25 -37 -1 -1 -11 4 -23 12 -21 15 -21 15 17 35 53 27 57 26
31 -10z m-228 -19 c0 -15 -21 -21 -35 -9 -22 19 -18 28 10 22 14 -2 25 -8 25
-13z m166 -25 l25 -17 -28 -18 c-34 -23 -94 -24 -133 -4 -33 17 -36 25 -18 43
18 18 124 15 154 -4z"/>
<path d="M1747 127 c-54 -27 -166 -119 -149 -125 5 -1 37 18 71 43 33 25 81
55 106 66 25 11 43 24 40 30 -9 13 -14 12 -68 -14z"/>
<path d="M1982 83 c2 -5 10 -25 18 -45 18 -47 43 -53 30 -7 -5 17 -14 37 -21
45 -12 15 -33 20 -27 7z"/>
<path d="M849 20 c13 -11 35 -20 50 -19 25 1 25 1 -6 12 -17 7 -35 15 -39 20
-4 4 -12 7 -18 7 -6 -1 0 -10 13 -20z"/>
</g>
</svg>
